{
    "asset" : {
        "generator" : "Khronos glTF Blender I/O v1.8.19",
        "version" : "2.0"
    },
    "scene" : 0,
    "scenes" : [
        {
            "name" : "Scene",
            "nodes" : [
                0
            ]
        }
    ],
    "nodes" : [
        {
            "mesh" : 0,
            "name" : "skull",
            "rotation" : [
                0.7071068286895752,
                0,
                0,
                0.7071067094802856
            ]
        }
    ],
    "meshes" : [
        {
            "name" : "skull",
            "primitives" : [
                {
                    "attributes" : {
                        "POSITION" : 0,
                        "NORMAL" : 1,
                        "TEXCOORD_0" : 2
                    },
                    "indices" : 3
                }
            ]
        }
    ],
    "accessors" : [
        {
            "bufferView" : 0,
            "componentType" : 5126,
            "count" : 15351,
            "max" : [
                0.6671309471130371,
                0.9058840870857239,
                1.0047305822372437
            ],
            "min" : [
                -0.6670279502868652,
                -0.8785642385482788,
                -0.9911536574363708
            ],
            "type" : "VEC3"
        },
        {
            "bufferView" : 1,
            "componentType" : 5126,
            "count" : 15351,
            "type" : "VEC3"
        },
        {
            "bufferView" : 2,
            "componentType" : 5126,
            "count" : 15351,
            "type" : "VEC2"
        },
        {
            "bufferView" : 3,
            "componentType" : 5123,
            "count" : 83727,
            "type" : "SCALAR"
        }
    ],
    "bufferViews" : [
        {
            "buffer" : 0,
            "byteLength" : 184212,
            "byteOffset" : 0
        },
        {
            "buffer" : 0,
            "byteLength" : 184212,
            "byteOffset" : 184212
        },
        {
            "buffer" : 0,
            "byteLength" : 122808,
            "byteOffset" : 368424
        },
        {
            "buffer" : 0,
            "byteLength" : 167454,
            "byteOffset" : 491232
        }
    ],
    "buffers" : [
        {
            "byteLength" : 658688,
            "uri" : "Skull.bin"
        }
    ]
}
